Coordinates
version=1
nRows=11
nColumns=40
inDegrees=yes

Units are S.I. units (second, meters, Newtons, ...)
Angles are in degrees.

endheader
time	pelvis_tilt	pelvis_list	pelvis_rotation	pelvis_tx	pelvis_ty	pelvis_tz	hip_flexion_r	hip_adduction_r	hip_rotation_r	knee_angle_r	knee_angle_r_beta	ankle_angle_r	subtalar_angle_r	mtp_angle_r	hip_flexion_l	hip_adduction_l	hip_rotation_l	knee_angle_l	knee_angle_l_beta	ankle_angle_l	subtalar_angle_l	mtp_angle_l	lumbar_extension	lumbar_bending	lumbar_rotation	arm_flex_r	arm_add_r	arm_rot_r	elbow_flex_r	pro_sup_r	wrist_flex_r	wrist_dev_r	arm_flex_l	arm_add_l	arm_rot_l	elbow_flex_l	pro_sup_l	wrist_flex_l	wrist_dev_l
      5.63250000	     -2.47514677	     -5.06860340	      2.45269175	      0.95111562	      0.92396215	      0.50963639	     20.47908967	      1.16340679	    -15.52963048	     20.66817239	     20.66817239	      5.43144290	     -1.97930837	     -1.81331564	      1.46829330	    -11.86001639	     -7.10493864	     40.83027317	     40.83027317	      9.97453663	     -3.71161296	    -16.06550807	     -9.53108379	      6.95689913	     -0.73217118	     -7.22420671	    -12.93935516	     -1.90172132	     32.75351463	     45.65997072	      0.00000000	      0.00000000	     11.20232704	    -16.10655450	     -3.09154622	     93.76746118	     47.89984810	      0.00000000	      0.00000000
      5.64371429	     -2.49827070	     -5.22479515	      2.85982210	      0.95128071	      0.92540071	      0.51098164	     19.50115327	      1.44411469	    -16.03012328	     19.87908175	     19.87908175	      5.74607827	     -1.52150333	     -2.00575010	      3.73118895	    -12.29027884	     -5.65005761	     44.83917577	     44.83917577	      7.81902200	     -5.76525507	    -15.35857053	     -9.54967957	      7.16405247	     -0.84424257	     -5.49615364	    -13.23401613	     -1.96647090	     33.72990374	     45.64024229	      0.00000000	      0.00000000	     10.26661316	    -15.70926025	     -2.56287952	     91.44257628	     47.82396811	      0.00000000	      0.00000000
      5.65492857	     -2.50945989	     -5.13849277	      3.23491624	      0.95117038	      0.92684284	      0.51205101	     18.55097928	      1.43769790	    -16.56241248	     19.16921264	     19.16921264	      5.95968564	     -0.89819284	     -2.64215148	      6.04624340	    -12.16427804	     -3.95078404	     48.73199800	     48.73199800	      6.09493099	     -8.08531204	    -13.01249303	     -9.58652515	      7.14647057	     -0.71573940	     -3.94182688	    -13.59605309	     -1.92240029	     35.17554760	     45.59655072	      0.00000000	      0.00000000	      9.99856445	    -15.06415813	     -1.88464237	     87.44333060	     47.72132562	      0.00000000	      0.00000000
      5.66614286	     -2.55684439	     -5.40838888	      3.62300348	      0.95073684	      0.92784827	      0.51329322	     17.64171934	      1.89034631	    -17.00760456	     18.32717929	     18.32717929	      6.09980548	     -0.60910338	     -2.75508754	      8.58865463	    -12.58914208	     -2.58683872	     52.61595842	     52.61595842	      4.44541076	     -9.37943151	    -11.84179977	     -9.67099272	      7.45385986	     -0.57581815	     -2.23773192	    -13.97071824	     -2.01466502	     36.21232771	     45.57509303	      0.00000000	      0.00000000	      9.12538355	    -14.57706243	     -1.23589128	     85.58217665	     47.64582194	      0.00000000	      0.00000000
      5.67735714	     -2.58262530	     -5.40315573	      3.95012528	      0.95009690	      0.92890176	      0.51439091	     16.69574018	      2.08726034	    -17.23904595	     17.41613729	     17.41613729	      5.80514543	     -0.49590416	     -4.23761023	     11.31252823	    -12.54261120	     -1.21125432	     56.75217495	     56.75217495	      5.85523055	     -9.14461750	     -3.51888820	     -9.74602666	      7.49101982	      0.57033545	     -1.84218066	    -14.66981099	     -2.16197624	     39.78658806	     45.46740314	      0.00000000	      0.00000000	      9.88336682	    -13.96866398	      1.09754276	     80.35915035	     47.46453439	      0.00000000	      0.00000000
      5.68857143	     -2.67331327	     -5.50767368	      4.33334523	      0.94922750	      0.92965830	      0.51536580	     15.94959487	      2.34895332	    -17.54223713	     16.74248761	     16.74248761	      5.98620532	     -0.25981760	     -4.31822252	     13.87873219	    -12.46800959	      0.21074442	     59.89205984	     59.89205984	      4.68446352	    -10.45884978	     -2.39204469	     -9.83183485	      7.55753589	      0.41207796	      0.23226612	    -15.00471632	     -2.30908236	     40.93452262	     45.44938433	      0.00000000	      0.00000000	      8.98156833	    -13.60962443	      1.38905929	     77.72919458	     47.40212926	      0.00000000	      0.00000000
      5.69978571	     -2.65345756	     -5.67414051	      4.61282985	      0.94814383	      0.93026244	      0.51635007	     15.22006311	      2.68535601	    -17.76216666	     16.27798183	     16.27798183	      6.20682990	     -0.18402353	     -4.35149649	     16.29421183	    -12.52301322	      1.30695800	     62.67652155	     62.67652155	      3.87129962	    -11.43244637	     -1.89204481	    -10.08546371	      7.78380892	      0.69735393	      2.34292471	    -15.46605995	     -2.43661326	     41.96779563	     45.43212061	      0.00000000	      0.00000000	      8.06107044	    -13.07962860	      1.81275207	     76.11611398	     47.34034892	      0.00000000	      0.00000000
      5.71100000	     -2.77043538	     -5.72741121	      4.93057725	      0.94688681	      0.93069766	      0.51715571	     14.56474697	      2.91184473	    -17.88502626	     15.62821861	     15.62821861	      6.13645959	     -0.26876731	     -5.02507550	     18.99974914	    -12.27798871	      2.49578449	     65.38749520	     65.38749520	      5.14941977	    -11.60874680	      3.24045345	    -10.09332593	      7.87312166	      1.42704696	      3.20269874	    -16.26586291	     -2.08240194	     45.26550042	     45.32239167	      0.00000000	      0.00000000	      8.70959268	    -12.28499366	      2.93432847	     70.07901492	     47.20689063	      0.00000000	      0.00000000
      5.72221429	     -2.85037435	     -5.85925968	      5.19507132	      0.94552351	      0.93097816	      0.51807008	     13.99222443	      3.20914800	    -18.00164064	     15.20153025	     15.20153025	      6.36652606	     -0.28628994	     -5.02165453	     21.41919220	    -12.13799543	      3.48097312	     67.22614724	     67.22614724	      4.80035740	    -12.62965831	      3.37063517	    -10.25625470	      7.96811605	      1.35408187	      5.52167568	    -16.52060978	     -2.24573504	     46.52767628	     45.29989181	      0.00000000	      0.00000000	      7.57654838	    -12.11184013	      3.24149820	     68.07046624	     47.14924797	      0.00000000	      0.00000000
      5.73342857	     -2.84147603	     -5.90123559	      5.38468165	      0.94413166	      0.93135467	      0.51892170	     13.39842624	      3.41641288	    -17.92658010	     14.92062636	     14.92062636	      6.60492046	     -0.44908862	     -5.14843588	     23.62629335	    -11.92307144	      4.23749882	     68.57444190	     68.57444190	      4.96249506	    -13.44027457	      4.19175912	    -10.44805143	      7.99414275	      1.71979134	      7.48390457	    -17.14003252	     -1.73951057	     48.58295567	     45.22472654	      0.00000000	      0.00000000	      7.64186771	    -11.21229124	      3.07411895	     62.96032468	     47.09561500	      0.00000000	      0.00000000
      5.74464286	     -2.91115522	     -5.91689257	      5.55246458	      0.94267144	      0.93160456	      0.51981579	     12.87576558	      3.59061863	    -17.91152449	     14.60542982	     14.60542982	      6.82262940	     -0.53437021	     -5.12974778	     25.77905495	    -11.71791979	      4.79134172	     69.31280038	     69.31280038	      5.07811950	    -14.35608247	      4.47035379	    -10.65811184	      7.89526162	      1.63511789	      9.82556369	    -17.31797190	     -1.75598873	     50.44073574	     45.17656247	      0.00000000	      0.00000000	      6.57909249	    -11.07285121	      3.29725604	     60.43572544	     47.03601286	      0.00000000	      0.00000000
